<svg width="25" height="19" viewBox="0 0 25 19" fill="none" xmlns="http://www.w3.org/2000/svg">
<path fill-rule="evenodd" clip-rule="evenodd" d="M4.2702 2.17168C4.79336 0.183665 7.61534 0.183655 8.1385 2.17168L12.1714 17.4968C12.3119 18.0309 11.9929 18.5778 11.4588 18.7184C10.9247 18.859 10.3778 18.5399 10.2372 18.0058L8.85452 12.7513H3.55419L2.17143 18.0058C2.03087 18.5399 1.48396 18.859 0.949854 18.7184C0.415753 18.5778 0.0967197 18.0309 0.237272 17.4968L4.2702 2.17168ZM4.0805 10.7513H8.3282L6.20435 2.68067L4.0805 10.7513ZM17.3069 8.21047C17.9147 6.3871 20.4939 6.3871 21.1017 8.21047L24.153 17.3645C24.3276 17.8884 24.0445 18.4547 23.5205 18.6294C22.9966 18.804 22.4303 18.5209 22.2556 17.9969L21.1502 14.6807H17.2584L16.153 17.9969C15.9783 18.5209 15.412 18.804 14.8881 18.6294C14.3641 18.4547 14.081 17.8884 14.2556 17.3645L17.3069 8.21047ZM17.9251 12.6807H20.4835L19.2043 8.84297L17.9251 12.6807Z" fill="#ABA7A7"/>
</svg>
