<svg width="19" height="25" viewBox="0 0 19 25" fill="none" xmlns="http://www.w3.org/2000/svg">
<path d="M18.2652 11.0895L4.63055 0.409412C4.3152 0.162195 3.89423 0.026001 3.44536 0.026001C2.9965 0.026001 2.57553 0.162195 2.26017 0.409412L1.25608 1.19575C0.602707 1.70813 0.602707 2.54091 1.25608 3.05251L12.7054 12.021L1.24338 20.9995C0.928023 21.2467 0.753906 21.5763 0.753906 21.9277C0.753906 22.2795 0.928023 22.609 1.24338 22.8565L2.24747 23.6426C2.56307 23.8898 2.98379 24.026 3.43266 24.026C3.88152 24.026 4.30249 23.8898 4.61785 23.6426L18.2652 12.9527C18.5813 12.7047 18.7549 12.3736 18.7539 12.0216C18.7549 11.6682 18.5813 11.3373 18.2652 11.0895Z" fill="black"/>
</svg>
