<svg width="19" height="25" viewBox="0 0 19 25" fill="none" xmlns="http://www.w3.org/2000/svg">
<path d="M1.25856 12.9953L14.8932 23.6754C15.2085 23.9226 15.6295 24.0588 16.0784 24.0588C16.5272 24.0588 16.9482 23.9226 17.2636 23.6754L18.2677 22.8891C18.921 22.3767 18.921 21.5439 18.2677 21.0323L6.81833 12.0638L18.2804 3.08535C18.5957 2.83813 18.7698 2.50857 18.7698 2.15716C18.7698 1.80536 18.5957 1.4758 18.2804 1.22839L17.2763 0.442249C16.9607 0.195032 16.54 0.0588379 16.0911 0.0588379C15.6422 0.0588379 15.2212 0.195032 14.9059 0.442249L1.25856 11.1321C0.942461 11.3801 0.768845 11.7112 0.76984 12.0632C0.768845 12.4166 0.942461 12.7475 1.25856 12.9953Z" fill="black"/>
</svg>
