<svg width="21" height="25" viewBox="0 0 21 25" fill="none" xmlns="http://www.w3.org/2000/svg">
<path fill-rule="evenodd" clip-rule="evenodd" d="M16.4983 12.3207C18.3501 11.1721 19.6483 9.28638 19.6483 7.53781C19.6483 3.66352 16.3074 0.680664 12.0119 0.680664H0.0800781V24.6807H13.5201C17.5101 24.6807 20.6028 21.7664 20.6028 18.1835C20.6028 15.5778 18.961 13.3492 16.4983 12.3207ZM5.80735 4.96638H11.5346C13.1192 4.96638 14.3983 6.11495 14.3983 7.53781C14.3983 8.96066 13.1192 10.1092 11.5346 10.1092H5.80735V4.96638ZM12.4892 20.395H5.80735V15.2521H12.4892C14.0737 15.2521 15.3528 16.4007 15.3528 17.8235C15.3528 19.2464 14.0737 20.395 12.4892 20.395Z" fill="#ABA7A7"/>
</svg>
