<svg width="35" height="30" viewBox="0 0 35 30" fill="none" xmlns="http://www.w3.org/2000/svg">
<path d="M33.7234 7.1402L26.0203 0.343323C25.771 0.123367 25.4333 0 25.081 0H9.14349C8.79123 0 8.45349 0.123367 8.20447 0.343323L0.501343 7.1402C0.25206 7.35992 0.112244 7.65793 0.112244 7.96875V22.0312C0.112244 22.3421 0.25206 22.6401 0.501343 22.8598L8.20447 29.6567C8.45349 29.8766 8.79123 30 9.14349 30H25.081C25.4333 30 25.771 29.8766 26.0203 29.6567L33.7234 22.8598C33.9724 22.6401 34.1122 22.3421 34.1122 22.0312V7.96875C34.1122 7.65793 33.9724 7.35992 33.7234 7.1402ZM31.456 21.5458L24.5308 27.6562H9.69368L2.76849 21.5458V8.45421L9.69368 2.34375H24.5308L31.456 8.45421V21.5458ZM18.4404 6.40617V18.9061C18.4404 19.5534 17.8458 20.078 17.1122 20.078C16.3787 20.078 15.7841 19.5534 15.7841 18.9061V6.40617C15.7841 5.7589 16.3787 5.2343 17.1122 5.2343C17.8458 5.2343 18.4404 5.75912 18.4404 6.40617ZM18.4404 23.5938C18.4404 24.2411 17.8458 24.7657 17.1122 24.7657C16.3787 24.7657 15.7841 24.2411 15.7841 23.5938C15.7841 22.9465 16.3787 22.422 17.1122 22.422C17.8458 22.422 18.4404 22.9465 18.4404 23.5938Z" fill="#FF0303"/>
</svg>
