<svg width="12" height="23" viewBox="0 0 12 23" fill="none" xmlns="http://www.w3.org/2000/svg">
<path fill-rule="evenodd" clip-rule="evenodd" d="M10.4502 6.43081V17.0108C10.4502 19.1008 8.9202 20.9608 6.8402 21.1608C4.4502 21.3908 2.4502 19.5208 2.4502 17.1808V4.82081C2.4502 3.51081 3.3902 2.32081 4.6902 2.19081C6.1902 2.04081 7.4502 3.21081 7.4502 4.68081V15.1808C7.4502 15.7308 7.0002 16.1808 6.4502 16.1808C5.9002 16.1808 5.4502 15.7308 5.4502 15.1808V6.43081C5.4502 6.02081 5.1102 5.68081 4.7002 5.68081C4.2902 5.68081 3.9502 6.02081 3.9502 6.43081V15.0408C3.9502 16.3508 4.8902 17.5408 6.1902 17.6708C7.6902 17.8208 8.9502 16.6508 8.9502 15.1808V4.85081C8.9502 2.76081 7.4202 0.90081 5.3402 0.70081C2.9602 0.47081 0.950195 2.34081 0.950195 4.68081V16.9508C0.950195 19.8208 3.0502 22.3908 5.9102 22.6608C9.2002 22.9608 11.9502 20.4008 11.9502 17.1808V6.43081C11.9502 6.02081 11.6102 5.68081 11.2002 5.68081C10.7902 5.68081 10.4502 6.02081 10.4502 6.43081Z" fill="#ABA7A7"/>
</svg>
