<svg width="74" height="55" viewBox="0 0 74 55" fill="none" xmlns="http://www.w3.org/2000/svg">
<path d="M73.1857 35.1134C66.7901 25.7178 52.8707 17.1875 36.9999 17.1875C21.0178 17.1875 7.13894 25.8217 0.814171 35.1134C0.395276 35.7288 0.395276 36.4587 0.814171 37.0742C7.2098 46.4697 21.1291 55 36.9999 55C54.9705 55 68.217 44.3736 73.1857 37.0741C73.6046 36.4587 73.6046 35.7288 73.1857 35.1134ZM36.9999 50.7031C24.0573 50.7031 13.1931 44.2248 6.63706 36.0938C13.1205 28.0527 23.95 21.4844 36.9999 21.4844C49.9941 21.4844 60.8436 28.0086 67.3628 36.0938C60.7765 44.2619 49.8689 50.7031 36.9999 50.7031ZM1.3986 11.9423C2.45225 11.0605 4.25544 10.9894 5.42586 11.7833L11.7769 16.0917C12.9471 16.8858 13.0417 18.2441 11.9879 19.1259C10.9341 20.0079 9.1309 20.0788 7.96061 19.2849L1.60961 14.9764C0.439333 14.1826 0.344804 12.8241 1.3986 11.9423ZM34.1484 10.7422V2.14844C34.1484 0.961963 35.425 0 36.9999 0C38.5748 0 39.8515 0.961963 39.8515 2.14844V10.7422C39.8515 11.9287 38.5748 12.8906 36.9999 12.8906C35.425 12.8906 34.1484 11.9287 34.1484 10.7422ZM16.0695 5.95708C15.4289 4.87309 16.0759 3.60314 17.5146 3.1205C18.9535 2.63785 20.6389 3.12533 21.2796 4.20933L25.6406 11.5892C26.2812 12.6731 25.6342 13.9431 24.1954 14.4258C22.7608 14.9069 21.0732 14.4243 20.4305 13.337L16.0695 5.95708ZM62.012 19.1259C60.9582 18.2442 61.0526 16.8858 62.223 16.0917L68.574 11.7833C69.7443 10.9894 71.5475 11.0605 72.6013 11.9423C73.6551 12.824 73.5607 14.1825 72.3902 14.9764L66.0392 19.2849C64.8685 20.079 63.0656 20.0075 62.012 19.1259ZM48.3591 11.5892L52.7202 4.20933C53.3608 3.12533 55.0463 2.63785 56.4851 3.1205C57.9238 3.60314 58.5709 4.87309 57.9303 5.95708L53.5692 13.3369C52.9258 14.4258 51.2366 14.9062 49.8043 14.4258C48.3657 13.9431 47.7187 12.6732 48.3591 11.5892ZM36.9999 25.5396C29.2758 25.5396 22.9916 30.2742 22.9916 36.0938C22.9916 41.9133 29.2758 46.6479 36.9999 46.6479C44.7241 46.6479 51.0082 41.9133 51.0082 36.0938C51.0082 30.2742 44.7241 25.5396 36.9999 25.5396ZM36.9999 42.3511C32.4205 42.3511 28.6948 39.544 28.6948 36.0938C28.6948 32.6435 32.4205 29.8364 36.9999 29.8364C41.5794 29.8364 45.3051 32.6435 45.3051 36.0938C45.3051 39.544 41.5794 42.3511 36.9999 42.3511Z" fill="black"/>
</svg>
