<svg width="138" height="94" viewBox="0 0 138 94" fill="none" xmlns="http://www.w3.org/2000/svg">
<path d="M130.414 0.117188H7.57928C3.7185 0.117188 0.559998 3.34513 0.559998 7.29051V86.1985C0.559998 90.1436 3.7185 93.3721 7.57928 93.3721H130.414C134.274 93.3721 137.433 90.1441 137.433 86.1985V7.29051C137.433 3.34513 134.274 0.117188 130.414 0.117188ZM127.78 5.49691L73.0342 47.4621C72.0499 48.2276 70.5389 48.7065 68.9962 48.6994C67.4537 48.7065 65.943 48.2276 64.9584 47.4621L10.213 5.49691H127.78ZM98.5364 50.231L128.368 87.8918C128.398 87.9295 128.434 87.9582 128.466 87.9924H9.52678C9.55832 87.9566 9.59521 87.9295 9.62515 87.8918L39.4565 50.231C40.3705 49.0762 40.1973 47.3831 39.0651 46.4468C37.9351 45.5127 36.2785 45.6898 35.3642 46.8449L5.82426 84.138V8.85954L61.8015 51.7656C63.9057 53.3672 66.4656 54.072 68.9959 54.0792C71.5227 54.0737 74.0848 53.3688 76.1903 51.7656L132.168 8.85954V84.1374L102.628 46.8449C101.714 45.6901 100.056 45.5125 98.9275 46.4468C97.7956 47.3809 97.6219 49.0762 98.5364 50.231Z" fill="#009933" fill-opacity="0.2"/>
</svg>
