<svg width="40" height="42" viewBox="0 0 40 42" fill="none" xmlns="http://www.w3.org/2000/svg">
<path d="M36.0586 11.8125H30.4417V1.84375C30.4417 1.57025 30.3356 1.30794 30.1466 1.11455C29.9576 0.921153 29.7012 0.8125 29.4339 0.8125H10.4333C10.166 0.8125 9.90962 0.921153 9.72062 1.11455C9.53162 1.30794 9.42547 1.57025 9.42547 1.84375V11.8125H3.80859C2.82908 11.8143 1.8902 12.2133 1.19757 12.922C0.504951 13.6307 0.115055 14.5914 0.113281 15.5938V29.3438C0.115055 30.3461 0.504951 31.3068 1.19757 32.0155C1.8902 32.7242 2.82908 33.1232 3.80859 33.125H9.42547V40.3438C9.42547 40.6172 9.53162 40.8796 9.72062 41.073C9.90962 41.2664 10.166 41.375 10.4333 41.375H29.4339C29.7012 41.375 29.9576 41.2664 30.1466 41.073C30.3356 40.8796 30.4417 40.6172 30.4417 40.3438V33.125H36.0586C37.0381 33.1232 37.977 32.7242 38.6696 32.0155C39.3622 31.3068 39.7522 30.3461 39.7539 29.3438V15.5938C39.7522 14.5914 39.3622 13.6307 38.6696 12.922C37.977 12.2133 37.0381 11.8143 36.0586 11.8125ZM11.4411 2.875H28.4261V11.8125H11.4411V2.875ZM28.4261 39.3125H11.4411V23.5H28.4261V39.3125ZM37.7383 29.3438C37.7383 29.7996 37.5613 30.2367 37.2463 30.5591C36.9313 30.8814 36.504 31.0625 36.0586 31.0625H30.4417V23.5H33.3711C33.6384 23.5 33.8948 23.3914 34.0838 23.198C34.2728 23.0046 34.3789 22.7422 34.3789 22.4688C34.3789 22.1953 34.2728 21.9329 34.0838 21.7395C33.8948 21.5461 33.6384 21.4375 33.3711 21.4375H6.49609C6.22882 21.4375 5.97243 21.5461 5.78344 21.7395C5.59444 21.9329 5.48828 22.1953 5.48828 22.4688C5.48828 22.7422 5.59444 23.0046 5.78344 23.198C5.97243 23.3914 6.22882 23.5 6.49609 23.5H9.42547V31.0625H3.80859C3.36311 31.0625 2.93588 30.8814 2.62087 30.5591C2.30587 30.2367 2.12891 29.7996 2.12891 29.3438V15.5938C2.12891 15.1379 2.30587 14.7008 2.62087 14.3784C2.93588 14.0561 3.36311 13.875 3.80859 13.875H36.0586C36.504 13.875 36.9313 14.0561 37.2463 14.3784C37.5613 14.7008 37.7383 15.1379 37.7383 15.5938V29.3438Z" fill="black"/>
</svg>
