<svg width="21" height="21" viewBox="0 0 21 21" fill="none" xmlns="http://www.w3.org/2000/svg">
<path d="M18.8153 5.96181H15.9814V1.04656C15.9814 0.911706 15.9278 0.782371 15.8325 0.687015C15.7371 0.591659 15.6078 0.538086 15.4729 0.538086H5.88647C5.75162 0.538086 5.62226 0.591659 5.52691 0.687015C5.43155 0.782371 5.37799 0.911706 5.37799 1.04656V5.96181H2.54409C2.0499 5.9627 1.5762 6.15944 1.22675 6.50887C0.877298 6.85832 0.680582 7.33202 0.679688 7.82622V14.6059C0.680582 15.1001 0.877298 15.5738 1.22675 15.9232C1.5762 16.2727 2.0499 16.4694 2.54409 16.4703H5.37799V20.0296C5.37799 20.1645 5.43155 20.2938 5.52691 20.3892C5.62226 20.4845 5.75162 20.5381 5.88647 20.5381H15.4729C15.6078 20.5381 15.7371 20.4845 15.8325 20.3892C15.9278 20.2938 15.9814 20.1645 15.9814 20.0296V16.4703H18.8153C19.3095 16.4694 19.7832 16.2727 20.1326 15.9232C20.4821 15.5738 20.6788 15.1001 20.6797 14.6059V7.82622C20.6788 7.33202 20.4821 6.85832 20.1326 6.50887C19.7832 6.15944 19.3095 5.9627 18.8153 5.96181ZM6.39494 1.55504H14.9644V5.96181H6.39494V1.55504ZM14.9644 19.5211H6.39494V11.7245H14.9644V19.5211ZM19.6627 14.6059C19.6627 14.8306 19.5735 15.0462 19.4145 15.2051C19.2556 15.3641 19.04 15.4533 18.8153 15.4533H15.9814V11.7245H17.4593C17.5942 11.7245 17.7236 11.671 17.8189 11.5756C17.9143 11.4803 17.9678 11.3509 17.9678 11.2161C17.9678 11.0812 17.9143 10.9518 17.8189 10.8565C17.7236 10.7611 17.5942 10.7076 17.4593 10.7076H3.90003C3.76518 10.7076 3.63582 10.7611 3.54047 10.8565C3.44511 10.9518 3.39155 11.0812 3.39155 11.2161C3.39155 11.3509 3.44511 11.4803 3.54047 11.5756C3.63582 11.671 3.76518 11.7245 3.90003 11.7245H5.37799V15.4533H2.54409C2.31933 15.4533 2.10378 15.3641 1.94485 15.2051C1.78592 15.0462 1.69664 14.8306 1.69664 14.6059V7.82622C1.69664 7.60148 1.78592 7.38592 1.94485 7.22697C2.10378 7.06805 2.31933 6.97876 2.54409 6.97876H18.8153C19.04 6.97876 19.2556 7.06805 19.4145 7.22697C19.5735 7.38592 19.6627 7.60148 19.6627 7.82622V14.6059Z" fill="#ABA7A7"/>
</svg>
