<svg width="27" height="9" viewBox="0 0 27 9" fill="none" xmlns="http://www.w3.org/2000/svg">
<path d="M25.8922 3.59668H14.8922H14.7922C14.3922 1.89668 12.7922 0.59668 10.8922 0.59668C8.99215 0.59668 7.49215 1.89668 6.99215 3.59668H6.89215H1.89215C1.29215 3.59668 0.892151 3.99668 0.892151 4.59668C0.892151 5.19668 1.29215 5.59668 1.89215 5.59668H6.89215H6.99215C7.39215 7.29668 8.99215 8.59668 10.8922 8.59668C12.7922 8.59668 14.2922 7.29668 14.7922 5.59668H14.8922H25.8922C26.4922 5.59668 26.8922 5.19668 26.8922 4.59668C26.8922 3.99668 26.4922 3.59668 25.8922 3.59668Z" fill="black"/>
</svg>
