<svg width="14" height="9" viewBox="0 0 14 9" fill="none" xmlns="http://www.w3.org/2000/svg">
<path d="M7.54628 8.75679L13.7763 2.69695C13.9206 2.55679 14 2.3697 14 2.1702C14 1.97071 13.9206 1.78361 13.7763 1.64345L13.3176 1.19719C13.0188 0.906799 12.533 0.906799 12.2345 1.19719L7.0029 6.28578L1.76547 1.19154C1.62126 1.05138 1.42901 0.973999 1.22402 0.973999C1.0188 0.973999 0.826562 1.05138 0.682239 1.19154L0.223657 1.63781C0.0794468 1.77807 0 1.96506 0 2.16456C0 2.36405 0.0794468 2.55115 0.223657 2.69131L6.45941 8.75679C6.60408 8.89728 6.79723 8.97444 7.00256 8.974C7.20869 8.97444 7.40173 8.89728 7.54628 8.75679Z" fill="#ABA7A7"/>
</svg>
